<mxfile host="app.diagrams.net" agent="Mozilla/5.0 (Windows NT 10.0; Win64; x64) AppleWebKit/537.36 (KHTML, like Gecko) Chrome/131.0.0.0 Safari/537.36" version="25.0.3">
  <diagram name="Page-1" id="BLxnibwoxfRUleXdPORc">
    <mxGraphModel dx="1050" dy="522" grid="1" gridSize="10" guides="1" tooltips="1" connect="1" arrows="1" fold="1" page="1" pageScale="1" pageWidth="850" pageHeight="1100" math="0" shadow="0">
      <root>
        <mxCell id="0" />
        <mxCell id="1" parent="0" />
        <mxCell id="BtLth9Y7HRJpA6_XFsnp-1" value="" style="ellipse;html=1;shape=endState;fillColor=strokeColor;" vertex="1" parent="1">
          <mxGeometry x="685" y="580" width="30" height="30" as="geometry" />
        </mxCell>
        <mxCell id="BtLth9Y7HRJpA6_XFsnp-4" value="" style="edgeStyle=orthogonalEdgeStyle;rounded=0;orthogonalLoop=1;jettySize=auto;html=1;" edge="1" parent="1" source="BtLth9Y7HRJpA6_XFsnp-2" target="BtLth9Y7HRJpA6_XFsnp-3">
          <mxGeometry relative="1" as="geometry" />
        </mxCell>
        <mxCell id="BtLth9Y7HRJpA6_XFsnp-2" value="" style="shape=ellipse;html=1;dashed=0;whiteSpace=wrap;aspect=fixed;perimeter=ellipsePerimeter;fillColor=#000000;" vertex="1" parent="1">
          <mxGeometry x="100" y="190" width="30" height="30" as="geometry" />
        </mxCell>
        <mxCell id="BtLth9Y7HRJpA6_XFsnp-6" value="" style="edgeStyle=orthogonalEdgeStyle;rounded=0;orthogonalLoop=1;jettySize=auto;html=1;" edge="1" parent="1" source="BtLth9Y7HRJpA6_XFsnp-3" target="BtLth9Y7HRJpA6_XFsnp-5">
          <mxGeometry relative="1" as="geometry" />
        </mxCell>
        <mxCell id="BtLth9Y7HRJpA6_XFsnp-3" value="" style="rhombus;whiteSpace=wrap;html=1;" vertex="1" parent="1">
          <mxGeometry x="160" y="180" width="100" height="50" as="geometry" />
        </mxCell>
        <mxCell id="BtLth9Y7HRJpA6_XFsnp-9" value="" style="edgeStyle=orthogonalEdgeStyle;rounded=0;orthogonalLoop=1;jettySize=auto;html=1;" edge="1" parent="1" source="BtLth9Y7HRJpA6_XFsnp-5" target="BtLth9Y7HRJpA6_XFsnp-8">
          <mxGeometry relative="1" as="geometry" />
        </mxCell>
        <mxCell id="BtLth9Y7HRJpA6_XFsnp-5" value="unregistered" style="rounded=1;whiteSpace=wrap;html=1;" vertex="1" parent="1">
          <mxGeometry x="150" y="80" width="120" height="60" as="geometry" />
        </mxCell>
        <mxCell id="BtLth9Y7HRJpA6_XFsnp-7" value="[unregistered]" style="text;html=1;align=center;verticalAlign=middle;resizable=0;points=[];autosize=1;strokeColor=none;fillColor=none;" vertex="1" parent="1">
          <mxGeometry x="208" y="150" width="100" height="30" as="geometry" />
        </mxCell>
        <mxCell id="BtLth9Y7HRJpA6_XFsnp-13" value="" style="edgeStyle=orthogonalEdgeStyle;rounded=0;orthogonalLoop=1;jettySize=auto;html=1;" edge="1" parent="1" source="BtLth9Y7HRJpA6_XFsnp-8" target="BtLth9Y7HRJpA6_XFsnp-12">
          <mxGeometry relative="1" as="geometry" />
        </mxCell>
        <mxCell id="BtLth9Y7HRJpA6_XFsnp-8" value="&amp;nbsp;not verified" style="whiteSpace=wrap;html=1;rounded=1;" vertex="1" parent="1">
          <mxGeometry x="440" y="80" width="120" height="60" as="geometry" />
        </mxCell>
        <mxCell id="BtLth9Y7HRJpA6_XFsnp-10" value="register personal information" style="text;html=1;align=center;verticalAlign=middle;resizable=0;points=[];autosize=1;strokeColor=none;fillColor=none;" vertex="1" parent="1">
          <mxGeometry x="264" y="80" width="180" height="30" as="geometry" />
        </mxCell>
        <mxCell id="BtLth9Y7HRJpA6_XFsnp-17" value="" style="edgeStyle=orthogonalEdgeStyle;rounded=0;orthogonalLoop=1;jettySize=auto;html=1;" edge="1" parent="1" source="BtLth9Y7HRJpA6_XFsnp-12" target="BtLth9Y7HRJpA6_XFsnp-14">
          <mxGeometry relative="1" as="geometry" />
        </mxCell>
        <mxCell id="BtLth9Y7HRJpA6_XFsnp-19" value="" style="edgeStyle=orthogonalEdgeStyle;rounded=0;orthogonalLoop=1;jettySize=auto;html=1;" edge="1" parent="1" source="BtLth9Y7HRJpA6_XFsnp-12" target="BtLth9Y7HRJpA6_XFsnp-18">
          <mxGeometry relative="1" as="geometry" />
        </mxCell>
        <mxCell id="BtLth9Y7HRJpA6_XFsnp-12" value="registered" style="rounded=1;whiteSpace=wrap;html=1;" vertex="1" parent="1">
          <mxGeometry x="440" y="175" width="120" height="60" as="geometry" />
        </mxCell>
        <mxCell id="BtLth9Y7HRJpA6_XFsnp-14" value="verify username and password using email" style="text;html=1;align=center;verticalAlign=middle;resizable=0;points=[];autosize=1;strokeColor=none;fillColor=none;" vertex="1" parent="1">
          <mxGeometry x="378" y="138" width="250" height="30" as="geometry" />
        </mxCell>
        <mxCell id="BtLth9Y7HRJpA6_XFsnp-15" value="" style="endArrow=classic;html=1;rounded=0;exitX=1;exitY=0.5;exitDx=0;exitDy=0;entryX=0;entryY=0.5;entryDx=0;entryDy=0;" edge="1" parent="1" source="BtLth9Y7HRJpA6_XFsnp-3" target="BtLth9Y7HRJpA6_XFsnp-12">
          <mxGeometry width="50" height="50" relative="1" as="geometry">
            <mxPoint x="310" y="350" as="sourcePoint" />
            <mxPoint x="360" y="300" as="targetPoint" />
          </mxGeometry>
        </mxCell>
        <mxCell id="BtLth9Y7HRJpA6_XFsnp-16" value="[registered]" style="text;html=1;align=center;verticalAlign=middle;resizable=0;points=[];autosize=1;strokeColor=none;fillColor=none;" vertex="1" parent="1">
          <mxGeometry x="310" y="180" width="80" height="30" as="geometry" />
        </mxCell>
        <mxCell id="BtLth9Y7HRJpA6_XFsnp-28" value="" style="edgeStyle=orthogonalEdgeStyle;rounded=0;orthogonalLoop=1;jettySize=auto;html=1;" edge="1" parent="1" source="BtLth9Y7HRJpA6_XFsnp-18" target="BtLth9Y7HRJpA6_XFsnp-27">
          <mxGeometry relative="1" as="geometry" />
        </mxCell>
        <mxCell id="BtLth9Y7HRJpA6_XFsnp-18" value="booking room" style="whiteSpace=wrap;html=1;rounded=1;verticalAlign=top;" vertex="1" parent="1">
          <mxGeometry x="350" y="270" width="300" height="160" as="geometry" />
        </mxCell>
        <mxCell id="BtLth9Y7HRJpA6_XFsnp-22" value="" style="edgeStyle=orthogonalEdgeStyle;rounded=0;orthogonalLoop=1;jettySize=auto;html=1;" edge="1" parent="1" source="BtLth9Y7HRJpA6_XFsnp-20" target="BtLth9Y7HRJpA6_XFsnp-21">
          <mxGeometry relative="1" as="geometry" />
        </mxCell>
        <mxCell id="BtLth9Y7HRJpA6_XFsnp-20" value="browsing system" style="rounded=1;whiteSpace=wrap;html=1;" vertex="1" parent="1">
          <mxGeometry x="378" y="310" width="72" height="30" as="geometry" />
        </mxCell>
        <mxCell id="BtLth9Y7HRJpA6_XFsnp-24" value="" style="edgeStyle=orthogonalEdgeStyle;rounded=0;orthogonalLoop=1;jettySize=auto;html=1;" edge="1" parent="1" source="BtLth9Y7HRJpA6_XFsnp-21" target="BtLth9Y7HRJpA6_XFsnp-23">
          <mxGeometry relative="1" as="geometry" />
        </mxCell>
        <mxCell id="BtLth9Y7HRJpA6_XFsnp-21" value="choosing room" style="whiteSpace=wrap;html=1;rounded=1;" vertex="1" parent="1">
          <mxGeometry x="520" y="307.5" width="64" height="35" as="geometry" />
        </mxCell>
        <mxCell id="BtLth9Y7HRJpA6_XFsnp-26" value="" style="edgeStyle=orthogonalEdgeStyle;rounded=0;orthogonalLoop=1;jettySize=auto;html=1;" edge="1" parent="1" source="BtLth9Y7HRJpA6_XFsnp-23" target="BtLth9Y7HRJpA6_XFsnp-25">
          <mxGeometry relative="1" as="geometry" />
        </mxCell>
        <mxCell id="BtLth9Y7HRJpA6_XFsnp-23" value="enter room quantity and stay duration" style="whiteSpace=wrap;html=1;rounded=1;" vertex="1" parent="1">
          <mxGeometry x="493" y="370" width="118" height="35" as="geometry" />
        </mxCell>
        <mxCell id="BtLth9Y7HRJpA6_XFsnp-25" value="confirm booking" style="whiteSpace=wrap;html=1;rounded=1;" vertex="1" parent="1">
          <mxGeometry x="378" y="366.25" width="66" height="42.5" as="geometry" />
        </mxCell>
        <mxCell id="BtLth9Y7HRJpA6_XFsnp-48" value="" style="edgeStyle=orthogonalEdgeStyle;rounded=0;orthogonalLoop=1;jettySize=auto;html=1;" edge="1" parent="1" source="BtLth9Y7HRJpA6_XFsnp-27" target="BtLth9Y7HRJpA6_XFsnp-45">
          <mxGeometry relative="1" as="geometry" />
        </mxCell>
        <mxCell id="BtLth9Y7HRJpA6_XFsnp-27" value="paying" style="whiteSpace=wrap;html=1;rounded=1;verticalAlign=top;horizontal=1;" vertex="1" parent="1">
          <mxGeometry x="345" y="470" width="310" height="150" as="geometry" />
        </mxCell>
        <mxCell id="BtLth9Y7HRJpA6_XFsnp-29" value="click save button" style="text;html=1;align=center;verticalAlign=middle;resizable=0;points=[];autosize=1;strokeColor=none;fillColor=none;" vertex="1" parent="1">
          <mxGeometry x="492" y="430" width="110" height="30" as="geometry" />
        </mxCell>
        <mxCell id="BtLth9Y7HRJpA6_XFsnp-37" value="" style="edgeStyle=orthogonalEdgeStyle;rounded=0;orthogonalLoop=1;jettySize=auto;html=1;" edge="1" parent="1" source="BtLth9Y7HRJpA6_XFsnp-35" target="BtLth9Y7HRJpA6_XFsnp-36">
          <mxGeometry relative="1" as="geometry" />
        </mxCell>
        <mxCell id="BtLth9Y7HRJpA6_XFsnp-35" value="choosing payment option" style="rounded=1;whiteSpace=wrap;html=1;" vertex="1" parent="1">
          <mxGeometry x="368" y="490" width="92" height="30" as="geometry" />
        </mxCell>
        <mxCell id="BtLth9Y7HRJpA6_XFsnp-41" value="" style="edgeStyle=orthogonalEdgeStyle;rounded=0;orthogonalLoop=1;jettySize=auto;html=1;" edge="1" parent="1" source="BtLth9Y7HRJpA6_XFsnp-36" target="BtLth9Y7HRJpA6_XFsnp-38">
          <mxGeometry relative="1" as="geometry" />
        </mxCell>
        <mxCell id="BtLth9Y7HRJpA6_XFsnp-36" value="transaction veriying" style="whiteSpace=wrap;html=1;rounded=1;" vertex="1" parent="1">
          <mxGeometry x="519" y="487" width="84" height="35" as="geometry" />
        </mxCell>
        <mxCell id="BtLth9Y7HRJpA6_XFsnp-40" value="" style="edgeStyle=orthogonalEdgeStyle;rounded=0;orthogonalLoop=1;jettySize=auto;html=1;" edge="1" parent="1" source="BtLth9Y7HRJpA6_XFsnp-38" target="BtLth9Y7HRJpA6_XFsnp-39">
          <mxGeometry relative="1" as="geometry" />
        </mxCell>
        <mxCell id="BtLth9Y7HRJpA6_XFsnp-38" value="" style="rhombus;whiteSpace=wrap;html=1;" vertex="1" parent="1">
          <mxGeometry x="521" y="540" width="80" height="40" as="geometry" />
        </mxCell>
        <mxCell id="BtLth9Y7HRJpA6_XFsnp-39" value="transaction succesful" style="rounded=1;whiteSpace=wrap;html=1;" vertex="1" parent="1">
          <mxGeometry x="370" y="540" width="90" height="40" as="geometry" />
        </mxCell>
        <mxCell id="BtLth9Y7HRJpA6_XFsnp-42" value="[TAC correct]" style="text;html=1;align=center;verticalAlign=middle;resizable=0;points=[];autosize=1;strokeColor=none;fillColor=none;" vertex="1" parent="1">
          <mxGeometry x="452" y="530" width="90" height="30" as="geometry" />
        </mxCell>
        <mxCell id="BtLth9Y7HRJpA6_XFsnp-43" value="" style="endArrow=classic;html=1;rounded=0;exitX=1;exitY=0.5;exitDx=0;exitDy=0;entryX=1;entryY=0.5;entryDx=0;entryDy=0;edgeStyle=orthogonalEdgeStyle;" edge="1" parent="1" source="BtLth9Y7HRJpA6_XFsnp-38" target="BtLth9Y7HRJpA6_XFsnp-36">
          <mxGeometry width="50" height="50" relative="1" as="geometry">
            <mxPoint x="420" y="630" as="sourcePoint" />
            <mxPoint x="470" y="580" as="targetPoint" />
            <Array as="points">
              <mxPoint x="640" y="560" />
              <mxPoint x="640" y="505" />
            </Array>
          </mxGeometry>
        </mxCell>
        <mxCell id="BtLth9Y7HRJpA6_XFsnp-44" value="[TAC incorrect]" style="text;html=1;align=center;verticalAlign=middle;resizable=0;points=[];autosize=1;strokeColor=none;fillColor=none;" vertex="1" parent="1">
          <mxGeometry x="632" y="516" width="100" height="30" as="geometry" />
        </mxCell>
        <mxCell id="BtLth9Y7HRJpA6_XFsnp-51" value="" style="edgeStyle=orthogonalEdgeStyle;rounded=0;orthogonalLoop=1;jettySize=auto;html=1;" edge="1" parent="1" source="BtLth9Y7HRJpA6_XFsnp-45" target="BtLth9Y7HRJpA6_XFsnp-50">
          <mxGeometry relative="1" as="geometry" />
        </mxCell>
        <mxCell id="BtLth9Y7HRJpA6_XFsnp-45" value="booked" style="rounded=1;whiteSpace=wrap;html=1;" vertex="1" parent="1">
          <mxGeometry x="440" y="669" width="120" height="60" as="geometry" />
        </mxCell>
        <mxCell id="BtLth9Y7HRJpA6_XFsnp-49" value="payment done" style="text;html=1;align=center;verticalAlign=middle;resizable=0;points=[];autosize=1;strokeColor=none;fillColor=none;" vertex="1" parent="1">
          <mxGeometry x="496" y="629" width="100" height="30" as="geometry" />
        </mxCell>
        <mxCell id="BtLth9Y7HRJpA6_XFsnp-55" value="" style="edgeStyle=orthogonalEdgeStyle;rounded=0;orthogonalLoop=1;jettySize=auto;html=1;" edge="1" parent="1" source="BtLth9Y7HRJpA6_XFsnp-50" target="BtLth9Y7HRJpA6_XFsnp-1">
          <mxGeometry relative="1" as="geometry" />
        </mxCell>
        <mxCell id="BtLth9Y7HRJpA6_XFsnp-50" value="staying" style="whiteSpace=wrap;html=1;rounded=1;" vertex="1" parent="1">
          <mxGeometry x="640" y="669" width="120" height="60" as="geometry" />
        </mxCell>
        <mxCell id="BtLth9Y7HRJpA6_XFsnp-52" value="check-in" style="text;html=1;align=center;verticalAlign=middle;resizable=0;points=[];autosize=1;strokeColor=none;fillColor=none;" vertex="1" parent="1">
          <mxGeometry x="557" y="676" width="70" height="30" as="geometry" />
        </mxCell>
        <mxCell id="BtLth9Y7HRJpA6_XFsnp-56" value="check out" style="text;html=1;align=center;verticalAlign=middle;resizable=0;points=[];autosize=1;strokeColor=none;fillColor=none;" vertex="1" parent="1">
          <mxGeometry x="696" y="628" width="70" height="30" as="geometry" />
        </mxCell>
      </root>
    </mxGraphModel>
  </diagram>
</mxfile>
